<svg fill="none" height="10" viewBox="0 0 10 10" width="10" xmlns="http://www.w3.org/2000/svg"><g fill="#212121"><path d="m6.85355 3.14645c.19527.19526.19527.51184 0 .7071l-1.14644 1.14645 1.14644 1.14645c.19527.19526.19527.51184 0 .7071-.19526.19527-.51184.19527-.7071 0l-1.14645-1.14644-1.14645 1.14644c-.19526.19527-.51184.19527-.7071 0-.19527-.19526-.19527-.51184 0-.7071l1.14644-1.14645-1.14644-1.14645c-.19527-.19526-.19527-.51184 0-.7071.19526-.19527.51184-.19527.7071 0l1.14645 1.14644 1.14645-1.14644c.19526-.19527.51184-.19527.7071 0z"/><path d="m0 5.00003c0-2.76144 2.23859-5.00003 5.00003-5.00003s5.00007 2.23859 5.00007 5.00003-2.23863 5.00007-5.00007 5.00007-5.00003-2.23863-5.00003-5.00007zm5.00003-4.00003c-2.20915 0-4.00003 1.79088-4.00003 4.00003 0 2.20916 1.79088 4.00004 4.00003 4.00004 2.20916 0 4.00004-1.79088 4.00004-4.00004 0-2.20915-1.79088-4.00003-4.00004-4.00003z"/></g></svg>